<mxfile host="app.diagrams.net" modified="2024-04-11T22:41:23.222Z" agent="Mozilla/5.0 (Windows NT 10.0; Win64; x64) AppleWebKit/537.36 (KHTML, like Gecko) Chrome/123.0.0.0 Safari/537.36" version="24.2.3" etag="jf0IV1S8LMcL2Xj-Uekm" type="github">
  <diagram name="Page-1" id="u2vHupMQv-unOlroSWUu">
    <mxGraphModel>
      <root>
        <mxCell id="0" />
        <mxCell id="1" parent="0" />
      </root>
    </mxGraphModel>
  </diagram>
</mxfile>
